<svg width="31" height="29" viewBox="0 0 31 29" fill="none" xmlns="http://www.w3.org/2000/svg">
    <path d="M1 16.1875L15.5 1L30 16.1875M4.22222 12.8125V26.3125C4.22222 26.7601 4.39196 27.1893 4.69411 27.5057C4.99625 27.8222 5.40604 28 5.83333 28H10.6667C11.094 28 11.5038 27.8222 11.8059 27.5057C12.108 27.1893 12.2778 26.7601 12.2778 26.3125V19.5625C12.2778 19.1149 12.4475 18.6857 12.7497 18.3693C13.0518 18.0528 13.4616 17.875 13.8889 17.875H17.1111C17.5384 17.875 17.9482 18.0528 18.2503 18.3693C18.5525 18.6857 18.7222 19.1149 18.7222 19.5625V26.3125C18.7222 26.7601 18.892 27.1893 19.1941 27.5057C19.4962 27.8222 19.906 28 20.3333 28H25.1667C25.594 28 26.0038 27.8222 26.3059 27.5057C26.608 27.1893 26.7778 26.7601 26.7778 26.3125V12.8125"
          stroke="#191919" stroke-width="1.14286" stroke-linecap="round" stroke-linejoin="round"/>
</svg>
